<?xml version="1.0" encoding="UTF-8" standalone="no"?>
<!DOCTYPE svg PUBLIC "-//W3C//DTD SVG 1.1//EN" "http://www.w3.org/Graphics/SVG/1.1/DTD/svg11.dtd">
<svg width="100%" height="100%" viewBox="0 0 201 290" version="1.1" xmlns="http://www.w3.org/2000/svg" xmlns:xlink="http://www.w3.org/1999/xlink" xml:space="preserve" xmlns:serif="http://www.serif.com/" style="fill-rule:evenodd;clip-rule:evenodd;stroke-linecap:round;stroke-linejoin:round;stroke-miterlimit:1.5;">
    <g transform="matrix(1,0,0,1,-476,1)">
        <g id="Owl" transform="matrix(1.15006,0,0,1.15006,-564.54,-39.4759)">
            <path d="M1077.92,284.394L1076.72,223.148L1013.13,227.149L1077.92,284.394Z" style="fill:none;stroke:black;stroke-width:1.74px;"/>
            <path d="M1077.92,284.394L1045.51,284.746L1013.13,227.149" style="fill:none;stroke:black;stroke-width:1.74px;"/>
            <path d="M1045.51,284.746L1019.32,266.656L1013.13,227.149" style="fill:none;stroke:black;stroke-width:1.74px;"/>
            <path d="M1019.32,266.656L974.677,227.86L1013.13,227.149" style="fill:none;stroke:black;stroke-width:1.74px;"/>
            <path d="M1019.32,266.656L986.23,265.493L974.677,227.86" style="fill:none;stroke:black;stroke-width:1.74px;"/>
            <path d="M986.23,265.493L969.801,250.778L974.677,227.86" style="fill:none;stroke:black;stroke-width:1.74px;"/>
            <path d="M986.23,265.493L971.795,275.142L975.526,255.906" style="fill:none;stroke:black;stroke-width:1.74px;"/>
            <path d="M973.767,264.975L963.563,271.395L969.801,250.778" style="fill:none;stroke:black;stroke-width:1.74px;"/>
            <path d="M969.801,250.778L952.664,209.542L974.677,227.86" style="fill:none;stroke:black;stroke-width:1.74px;"/>
            <path d="M969.801,250.778L935.992,222.081L952.664,209.542" style="fill:none;stroke:black;stroke-width:1.74px;"/>
            <path d="M1013.13,227.149L1067.27,213.349L1076.72,223.148" style="fill:none;stroke:black;stroke-width:1.74px;"/>
            <path d="M1013.13,227.149L1020,158.172L1067.27,213.349" style="fill:none;stroke:black;stroke-width:1.74px;"/>
            <path d="M1067.27,213.349L1068.59,180.626L1020,158.172" style="fill:none;stroke:black;stroke-width:1.74px;"/>
            <path d="M1020,158.172L1021.35,137.116L1068.59,180.626" style="fill:none;stroke:black;stroke-width:1.74px;"/>
            <path d="M1021.35,137.116L1047.08,132.159L1068.59,180.626" style="fill:none;stroke:black;stroke-width:1.74px;"/>
            <path d="M1021.35,137.116L973.938,162.191L1013.13,227.149" style="fill:none;stroke:black;stroke-width:1.74px;"/>
            <path d="M992.657,227.528L973.938,162.191" style="fill:none;stroke:black;stroke-width:1.74px;"/>
            <path d="M974.677,227.86L973.938,162.191" style="fill:none;stroke:black;stroke-width:1.74px;"/>
            <path d="M952.664,209.542L973.938,162.191" style="fill:none;stroke:black;stroke-width:1.74px;"/>
            <path d="M952.664,209.542L919.498,133.019L973.938,162.191" style="fill:none;stroke:black;stroke-width:1.74px;"/>
            <path d="M935.992,222.081L933.045,203.277L952.664,209.542" style="fill:none;stroke:black;stroke-width:1.74px;"/>
            <path d="M933.045,203.277L919.498,133.019" style="fill:none;stroke:black;stroke-width:1.74px;"/>
            <path d="M933.045,203.277L908.364,173.771L919.498,133.019" style="fill:none;stroke:black;stroke-width:1.74px;"/>
            <path d="M908.364,173.771L906.464,140.385L919.498,133.019" style="fill:none;stroke:black;stroke-width:1.74px;"/>
            <path d="M919.498,133.019L964.99,112.379L973.938,162.191" style="fill:none;stroke:black;stroke-width:1.74px;"/>
            <path d="M964.99,112.379L1021.35,137.116" style="fill:none;stroke:black;stroke-width:1.74px;"/>
            <path d="M1021.35,137.116L1011.73,98.498L1047.08,132.159" style="fill:none;stroke:black;stroke-width:1.74px;"/>
            <path d="M964.99,112.379L1011.73,98.498" style="fill:none;stroke:black;stroke-width:1.74px;"/>
            <path d="M906.464,140.385L917.28,100.581L919.498,133.019" style="fill:none;stroke:black;stroke-width:1.74px;"/>
            <path d="M917.28,100.581L964.99,112.379" style="fill:none;stroke:black;stroke-width:1.74px;"/>
            <path d="M964.99,112.379L971.795,84.139L1011.73,98.498" style="fill:none;stroke:black;stroke-width:1.74px;"/>
            <path d="M1011.73,98.498L988.687,68.764L1011.68,77.942L1011.73,98.498" style="fill:none;stroke:black;stroke-width:1.74px;"/>
            <path d="M988.687,68.764L971.795,84.139" style="fill:none;stroke:black;stroke-width:1.74px;"/>
            <path d="M964.99,112.379L957.102,83.83L917.28,100.581" style="fill:none;stroke:black;stroke-width:1.74px;"/>
            <path d="M917.28,100.581L915.99,78.728L932.117,73.478L917.28,100.581" style="fill:none;stroke:black;stroke-width:1.74px;"/>
            <path d="M932.117,73.478L957.102,83.83" style="fill:none;stroke:black;stroke-width:1.74px;"/>
            <path d="M932.117,73.478L925.896,60.35L915.99,78.728" style="fill:none;stroke:black;stroke-width:1.74px;"/>
            <path d="M925.896,60.35L946.433,50.835L941.764,45.465L925.896,60.35Z" style="fill:none;stroke:black;stroke-width:1.74px;"/>
            <path d="M941.764,45.465L935.991,38.963L925.896,60.35" style="fill:none;stroke:black;stroke-width:1.74px;"/>
            <path d="M935.991,38.963L912.598,34.325L925.896,60.35" style="fill:none;stroke:black;stroke-width:1.74px;"/>
            <path d="M946.433,50.835L982.086,50.009L988.687,68.764L946.433,50.835" style="fill:none;stroke:black;stroke-width:1.74px;"/>
            <path d="M932.117,73.478L946.433,50.835L957.102,83.83" style="fill:none;stroke:black;stroke-width:1.74px;"/>
            <path d="M952.648,70.058L976.204,63.468L971.795,84.139" style="fill:none;stroke:black;stroke-width:1.74px;"/>
            <path d="M988.687,68.764L1002.91,58.921L1011.68,77.942" style="fill:none;stroke:black;stroke-width:1.74px;"/>
            <path d="M1002.91,58.921L982.086,50.009L989.858,42.984L1002.91,58.921Z" style="fill:none;stroke:black;stroke-width:1.74px;"/>
            <path d="M989.858,42.984L997.575,36.447L1002.91,58.921" style="fill:none;stroke:black;stroke-width:1.74px;"/>
            <path d="M997.575,36.447L1015.46,35.299L1002.91,58.921" style="fill:none;stroke:black;stroke-width:1.74px;"/>
        </g>
    </g>
</svg>
